<svg width="320" height="100" viewBox="0 0 320 100" fill="none" xmlns="http://www.w3.org/2000/svg">
<g clip-path="url(#clip0_60_2)">
<path d="M186.04 40.6348C197.237 40.6348 206.313 31.5545 206.313 20.3534C206.313 9.15231 197.237 0.0720215 186.04 0.0720215C174.843 0.0720215 165.766 9.15231 165.766 20.3534C165.766 31.5545 174.843 40.6348 186.04 40.6348Z" fill="#F9BB31"/>
<path d="M137.582 70.5999C137.249 73.8012 136.438 76.9928 135.121 80.0676C134.611 81.2616 134.024 82.4365 133.358 83.5889C132.664 84.7894 131.909 85.9306 131.093 87.0094C121.257 100.021 103.043 103.965 88.5583 95.5984C72.8719 86.5389 67.4991 66.472 76.5551 50.7795C85.6111 35.0871 105.669 29.7106 121.355 38.7701C125.288 41.0414 128.571 44.0041 131.144 47.4166C132.755 49.5535 134.086 51.8696 135.121 54.3009C136.405 57.3164 137.235 60.5097 137.577 63.7685C137.816 66.027 137.821 68.3175 137.582 70.5999Z" fill="#278F6C"/>
<path d="M186.078 40.5628C197.275 40.5628 206.352 31.4825 206.352 20.2814C206.352 9.08029 197.275 0 186.078 0C174.882 0 165.805 9.08029 165.805 20.2814C165.805 31.4825 174.882 40.5628 186.078 40.5628Z" fill="#F9BB31"/>
<path d="M249.528 69.6555C256.448 69.6555 262.058 64.0436 262.058 57.1211C262.058 50.1985 256.448 44.5867 249.528 44.5867C242.608 44.5867 236.998 50.1985 236.998 57.1211C236.998 64.0436 242.608 69.6555 249.528 69.6555Z" fill="#FF3652"/>
<path d="M7.1584 47.4727H0V87.0078H64.4304V80.122H7.1584V47.4727Z" fill="#010C07"/>
<path d="M163.904 54.4129H195.107V87.0078H202.266V54.4129H227.453L233.822 47.4727H163.904V54.4129Z" fill="#010C07"/>
<path d="M319.346 86.286C310.813 76.8744 283.677 47.3718 283.677 47.3718L247.358 87.0062H303.109L296.795 80.122H263.288L283.682 57.7694L284.522 58.6914C289.166 63.7861 310.029 86.5837 310.326 86.8814L310.453 87.0078H320L319.346 86.286Z" fill="#010C07"/>
<path d="M137.582 70.5999H81.968V63.7684H137.576C137.814 66.0269 137.819 68.3174 137.581 70.5999H137.582Z" fill="#010C07"/>
<path d="M146.398 80.0675H81.968V87.0078H146.398V80.0675Z" fill="#010C07"/>
<path d="M146.398 47.4166H81.968V54.3009H146.398V47.4166Z" fill="#010C07"/>
</g>
<defs>
<clipPath id="clip0_60_2">
<rect width="320" height="100" fill="white"/>
</clipPath>
</defs>
</svg>
